<?xml version="1.0" encoding="iso-8859-1"?>
<!-- Uploaded to: SVG Repo, www.svgrepo.com, Generator: SVG Repo Mixer Tools -->
<svg height="800px" width="800px" version="1.1" id="Layer_1" xmlns="http://www.w3.org/2000/svg" xmlns:xlink="http://www.w3.org/1999/xlink" 
	 viewBox="0 0 512.461 512.461" xml:space="preserve">
<path style="fill:#FFF176;" d="M325.031,213.661c2,15.2,0,28-5.6,41.2c-3.2,16.4-20.8,29.6-34.4,36c-12,5.6-23.6,6-36.8,6.4
	c-4.4,0-7.6-2.4-11.2-3.6c-2.4,1.2-5.2,1.2-7.6,0c-7.2-4.4-13.2-10-19.6-15.2c-2,0.8-4.4,0.4-6.4-0.8c-0.8-1.2-2-2-2.8-3.2
	c-1.2-2.4-1.6-4-2-6c-1.6-0.4-3.2-1.6-4.4-3.6c-1.6-2.8-3.6-6-4.8-9.2c-2.4-6.4-4.8-13.2-4.8-20.4l0,0c0-4.8,1.2-9.6,3.6-13.6
	c-6-4-1.6-16,7.2-14.4c3.6,0.4,6.8,1.2,10.4,2l0,0c4.4,2,8.4,4,17.2,4c5.6,0,9.6-0.8,12.4-2c0.4,0,0.8,0,0.8-0.4
	c9.2-2.4,17.2-4.4,26.8-3.6c10,0.8,18.8,6.8,28.8,6.4c2,0,4.4-0.4,6.4-0.8c2.4-0.4,4-0.8,5.6-1.6h0.4c3.6-1.2,7.2-2.8,11.2-4.4
	C320.231,204.061,324.231,209.261,325.031,213.661z M280.231,228.461L280.231,228.461L280.231,228.461L280.231,228.461z
	 M239.431,256.461L239.431,256.461L239.431,256.461L239.431,256.461z M212.231,248.461
	C212.631,248.461,212.631,248.461,212.231,248.461C212.631,248.461,212.631,248.461,212.231,248.461L212.231,248.461z"/>
<path d="M264.631,246.461c-1.2,0-2-0.4-2.8-1.2c-0.8-0.8-1.2-1.6-1.2-2.8c0-1.2,0.4-2,1.2-2.8c1.6-1.6,4-1.6,5.6,0
	c0.8,0.8,1.2,1.6,1.2,2.8c0,1.2-0.4,2-1.2,2.8C266.631,246.061,265.831,246.461,264.631,246.461z"/>
<path d="M280.231,232.461c-0.4,0-0.8,0-1.2-0.4c-1.6-0.4-2.8-2-2.8-3.6c0-2.4,1.6-4,4-4l0,0c1.6,0,2.8,0.8,3.6,2.4s0.4,3.2-0.4,4.4
	C282.631,231.661,281.431,232.461,280.231,232.461z"/>
<path d="M220.231,232.461c-2.4,0-4-1.6-4-4s1.6-4,4-4c1.6,0,3.2,0.8,3.6,2.4c0.4,0.4,0.4,1.2,0.4,1.6
	C224.231,230.461,222.231,232.461,220.231,232.461z"/>
<path d="M212.231,252.461c-2.4,0-4-1.6-4-4s1.6-4,4-4l0,0c2.4,0,4,1.6,4,4S214.631,252.461,212.231,252.461z"/>
<path d="M239.431,260.461c-2.4,0-4-2-4-4c0-2,1.6-4,4-4l0,0c2.4,0,4,1.6,4,4C243.431,258.861,241.831,260.461,239.431,260.461z"/>
<path d="M292.631,262.461c-1.2,0-2-0.4-2.8-1.2c-0.8-0.8-1.2-1.6-1.2-2.8c0-1.2,0.4-2,1.2-2.8c1.6-1.6,4-1.6,5.6,0
	c0.8,0.8,1.2,2,1.2,2.8c0,1.2-0.4,2-1.2,2.8C294.631,262.061,293.831,262.461,292.631,262.461z"/>
<path d="M264.231,476.461c-2.4,0-4-1.6-4-4v-152c0-2.4,1.6-4,4-4s4,1.6,4,4v152C268.231,474.861,266.631,476.461,264.231,476.461z"
	/>
<path d="M248.231,476.461c-2.4,0-4-1.6-4-4v-152c0-2.4,1.6-4,4-4s4,1.6,4,4v152C252.231,474.861,250.631,476.461,248.231,476.461z"
	/>
<path d="M212.231,512.461c-2.4,0-4-1.6-4-4s1.6-4,4-4c17.6,0,32-14.8,32-32.4c0-2.4,1.6-4,4-4s4,2,4,4
	C251.831,494.461,233.831,512.461,212.231,512.461L212.231,512.461z"/>
<path d="M300.231,512.461L300.231,512.461c-21.6,0-40-18.4-40-39.6c0-2.4,1.6-4,4-4s4,1.6,4,4c0,16.4,15.2,31.6,32,31.6
	c2.4,0,4,2,4,4S302.631,512.461,300.231,512.461z"/>
<path d="M291.031,216.461c-9.6,0-14.4-2.4-18.8-4.4c-4-2-7.6-3.6-15.2-3.6c-7.6,0-11.2,1.6-15.6,3.6c-1.6,0.8-3.2,1.6-4.8,2
	c-4.4,1.6-8.8,2.4-14,2.4c-9.2,0-14.4-2.4-18.8-4.4c-0.4,0-0.4-0.4-0.8-0.4c-4-1.6-7.6-3.6-14.8-3.6c-0.8,0-1.2,0-2,0
	c-0.4,0-0.8,0-1.2,0h-1.6c-6.4,0.4-9.2,0.4-12.4,3.2c-1.6,1.6-4,1.2-5.6-0.4s-1.2-4,0.4-5.6c5.2-4.8,10-4.8,17.2-5.2h1.6
	c0.8,0,1.6,0,2.4,0c0.4,0,0.8,0,1.2,0c9.2,0,14,2.4,18.4,4.4l0.4,0.4c0.4,0,0.4,0.4,0.8,0.4c4,2,7.6,3.2,14.8,3.2
	c5.6,0,8.8-0.8,11.2-1.6c1.6-0.4,2.8-1.2,4.4-2c4.4-2,9.2-4.4,18.8-4.4s14.4,2.4,18.8,4.4c4,2,7.6,3.6,15.2,3.6c2.4,0,4.4,0,6.4-0.4
	c1.6-0.4,3.2-0.8,4.8-1.2l0,0l0,0c1.2-0.4,2.8-1.2,4-1.6c4.4-2,9.2-4.4,18.8-4.4c0.8,0,1.6,0,2.4,0c8,0.4,12,2,16.4,3.6
	c2,0.8,2.8,3.2,2,5.2s-3.2,2.8-5.2,2c-3.6-1.6-6.4-2.8-13.2-3.2c-0.8,0-1.2,0-1.6,0c-7.6,0-11.2,1.6-15.6,3.6
	c-1.6,0.8-2.8,1.2-4.4,2c-0.4,0-0.4,0.4-0.8,0.4c-2,0.8-4,1.2-6,1.6C296.231,216.461,293.831,216.461,291.031,216.461z"/>
<path d="M312.231,512.461h-112c-2.4,0-4-1.6-4-4s1.6-4,4-4h112c2.4,0,4,1.6,4,4S314.631,512.461,312.231,512.461z"/>
<path d="M256.231,320.861c-2.8,0-5.6-0.4-7.6-0.4c-47.2-3.6-84.4-43.6-84.4-91.2c0-5.2,0.4-12.8,0.8-20.8l0,0
	c1.6-33.6,6-90.4,10.8-150.4c1.6-17.6,2.8-35.6,4.4-54c0-2,2-3.6,4-3.6h144c2,0,4,1.6,4,3.6c1.6,18.4,2.8,36.8,4.4,54.4
	c4.8,59.2,9.2,114.8,10.8,148.4c0.4,8.8,0.8,17.2,0.8,22.8c0,46.4-36.4,86-82.8,90.4c-0.4,0-0.4,0-0.8,0
	C260.631,320.861,259.031,320.861,256.231,320.861z M187.831,8.461c-1.2,16.8-2.8,33.6-4,50c-4.8,60-9.2,116.8-10.8,150l0,0
	c-0.4,7.6-0.4,15.2-0.4,20.4c0,43.2,34,80,76.8,83.2c2,0.4,4.4,0.4,6.8,0.4c2.4,0,4,0,7.2,0h0.4c42.8-4,76-40,76-82.8
	c0-5.2-0.4-13.6-0.8-22.4c-1.6-33.6-6-89.2-10.8-148.4c-1.2-16.8-2.8-33.6-4-50.8h-136.4V8.461z"/>
<path d="M256.231,304.461c-21.2,0-41.6-8.8-56-24.8c-1.2-1.2-2-2.4-2.8-3.2c-5.2-6.4-9.2-12.8-12-20c-2.4-6.4-5.2-14-5.2-22v-5.6
	c0-6.4,0.4-15.6,0.8-24.4c2-38,7.2-103.2,12.4-166.8l2.8-33.6c0-2,2-4,4.4-3.6c2.4,0,4,2,3.6,4.4v2l-2.4,31.6
	c-5.2,63.2-10.4,128.4-12.4,166.4c-0.4,8.8-0.8,17.6-0.8,24v5.6c0,6.8,2.4,13.6,4.8,19.2c2.4,6,6,12,10.4,17.6
	c0.8,1.2,1.6,2,2.4,2.8c12.8,14,31.2,22,50,22c37.2,0,67.6-30.4,67.6-67.6c0-5.6-0.4-14-0.8-24c-2-40-7.6-110-13.2-178v-2.4l-2-19.6
	c-0.4-2,1.2-4,3.6-4.4c2.4-0.4,4,1.2,4.4,3.6l2,22c5.6,68,11.2,138,13.2,178c0.4,10,0.8,18.4,0.8,24.4
	C331.831,270.461,297.831,304.461,256.231,304.461z"/>
</svg>